/* XPM */
static char *_d71a6e7f2514698eb08292ba1d8367b7F61uNfptDnkrUvn[] = {
/* columns rows colors chars-per-pixel */
"64 64 168 2 ",
"   c #B6B466",
".  c #B9B767",
"X  c #BBB967",
"o  c #B9B768",
"O  c #BDBC6A",
"+  c #C0BE6C",
"@  c #BFC06A",
"#  c #C5C46D",
"$  c #C8C76F",
"%  c #C7C86E",
"&  c #CAC96E",
"*  c #CAC86F",
"=  c #CAC96F",
"-  c #CBC96F",
";  c #CBCB6E",
":  c #CACA6F",
">  c #CBCA6F",
",  c #CBCB6F",
"<  c #C9C86F",
"1  c #CCCB6F",
"2  c #CBCC6F",
"3  c #CCCC6E",
"4  c #CCCC6F",
"5  c #CDCC6F",
"6  c #CDCD6F",
"7  c #CFCF6F",
"8  c #CACA6F",
"9  c #C8C670",
"0  c #C8C770",
"q  c #C9C770",
"w  c #C8C770",
"e  c #C8C870",
"r  c #C9C870",
"t  c #C9C970",
"y  c #CAC870",
"u  c #CAC970",
"i  c #CBC970",
"p  c #CACA70",
"a  c #CBCA70",
"s  c #CBCB70",
"d  c #CACA71",
"f  c #CBCA71",
"g  c #CBCB71",
"h  c #CCCA70",
"j  c #CCCB70",
"k  c #CDCB70",
"l  c #CCCA71",
"z  c #CCCB71",
"x  c #CDCB71",
"c  c #CCCB72",
"v  c #CCCC70",
"b  c #CDCC70",
"n  c #CDCD70",
"m  c #CCCC71",
"M  c #CDCC71",
"N  c #CCCD71",
"B  c #CDCD71",
"V  c #CECD70",
"C  c #CECD71",
"Z  c #CDCE70",
"A  c #CDCE71",
"S  c #CECE70",
"D  c #CFCE70",
"F  c #CFCF70",
"G  c #CECE71",
"H  c #CFCE71",
"J  c #CECF71",
"K  c #CFCF71",
"L  c #CDCC72",
"P  c #CDCD72",
"I  c #CECD72",
"U  c #CFCD72",
"Y  c #CECE72",
"T  c #CFCE72",
"R  c #CFCF72",
"E  c #CFCE73",
"W  c #CFCF73",
"Q  c #CDCC71",
"!  c #D0CF71",
"~  c #D0CF72",
"^  c #D0CF73",
"/  c #D0CF72",
"(  c #CFD071",
")  c #CFD072",
"_  c #CFD072",
"`  c #D0D071",
"'  c #D1D071",
"]  c #D1D171",
"[  c #D2D171",
"{  c #D2D271",
"}  c #D0D072",
"|  c #D1D072",
" . c #D0D172",
".. c #D1D172",
"X. c #D0D073",
"o. c #D1D073",
"O. c #D1D173",
"+. c #D2D172",
"@. c #D2D173",
"#. c #D1D272",
"$. c #D1D273",
"%. c #D2D272",
"&. c #D3D272",
"*. c #D3D372",
"=. c #D2D273",
"-. c #D3D273",
";. c #D2D373",
":. c #D3D373",
">. c #D4D373",
",. c #D4D473",
"<. c #D5D473",
"1. c #D4D573",
"2. c #D5D573",
"3. c #D1D174",
"4. c #D2D174",
"5. c #D2D274",
"6. c #D3D274",
"7. c #D2D374",
"8. c #D3D374",
"9. c #D4D374",
"0. c #D4D474",
"q. c #D5D474",
"w. c #D4D574",
"e. c #D5D574",
"r. c #D4D475",
"t. c #D5D475",
"y. c #D5D575",
"u. c #D6D574",
"i. c #D6D575",
"p. c #D5D675",
"a. c #D6D674",
"s. c #D7D774",
"d. c #D6D675",
"f. c #D7D675",
"g. c #D6D775",
"h. c #D7D775",
"j. c #D6D676",
"k. c #D7D676",
"l. c #D6D776",
"z. c #D7D776",
"x. c #D3D273",
"c. c #D8D775",
"v. c #D8D776",
"b. c #D8D776",
"n. c #D7D876",
"m. c #D7D876",
"M. c #D8D875",
"N. c #D9D975",
"B. c #D8D876",
"V. c #D9D876",
"C. c #D8D976",
"Z. c #D9D976",
"A. c #D8D877",
"S. c #D9D877",
"D. c #D9D977",
"F. c #DAD976",
"G. c #DAD977",
"H. c #DADA76",
"J. c #DADA77",
"K. c #DBDB77",
"L. c #DBDC77",
"P. c #DCDC77",
"I. c #D9D977",
"U. c #DBDB78",
"Y. c #DCDB78",
"T. c #DCDC78",
"R. c #DDDD78",
"E. c #DBDB78",
/* pixels */
"E A.A.A.E y.P.A.7 2.y.c./ y.K.c.$ 4.| y.E 2.N.2.) | 2.y.E | A.2., 9.y.c.c >.A.2.$ / 2.>.E 2.A.A.7 >.| y.c | A.A.E 2.y.A./ c.T.T.",
"E | # E E y.A.A.E E # f f | A.2., , # # , E A.| E E # c E | m.2.E c + c E | A.2., f + c , | K.y.1 c + f , 2.A.2.7 E + f E y.T.T.",
"4.c 9 9 ) y.U.A.E $ # # E | A.c.E , # # # | A.y.E 9 # # E y.A.y.2 $ # # E | 2.| E # # # E | A.y.c $ # $ E | Y.y.E , # f | A.T.U.",
"E | 4.| E y.E.k.7 f c c f 9.y.| f , f m m ) 2.y.$ f E / 9 | Y.y.$ E E 1 , 2.A.2., m f E f | L.m.E E c E f >.A.y.c E 4.4.E y.T.T.",
"| y.A.A.E y.y.k.m | A.| # 4.4.| m ) w.) f | | | E | A.y./ y.4.y.E ) A.| E w.y.m.f E y.| f 4.4.4.1 | y.E f y.| y.E | A.y.E y.A.T.",
"E y.E.A.E E + E m y.A.y.f f # % m | L.y.# f # $ , | A.y.f E + # f ;.m.y., # X f , 2 m.y.# f + # f 4.y.y.m f O f 2 2.A.c., / # E ",
") y.T.A.| , # # ) y.A.w.E # + # f E 2.m.E # # # , 4.A.;.c , + # E | 2.4.E # # # % y.A.2.E # # # c | y.y.f # # # E | A.A.| c 9 f ",
"E y.T.U., E | E f y.A.| f E f f , | y.;.# , E E # | A.y.1 E c / f | m.| , f , f , | 2.| f f E 7 $ 4.A.2.% c | E f ;.A.A.E / 4.4.",
"| A.A.A.E >.A.2.E >.9.c.E / y./ , | | | 7 | ;.| 7 | >.y.1 >.A.| , | y.y.7 E 2.;.E 7 E ;.E | y.| E 9.9.9.1 | A.2.2 y.A.y.| y.P.A.",
"E / # c 7 2.K.A., c + , $ / c.>., , X , , E 2.>.c c + 9 c 2.A.y.% f + , # | A.2., , O , m | A.A.1 f + $ f 2.A.A.E / + c E y.T.T.",
"4.c $ 9 ) y.A.A.E , # # c | A.2.& # # # , | 2.2.E $ # $ E | A.2.E $ # $ E 2.A.;.7 $ # # / 9.A.A.c $ # # E | A.2.E , # 9 | m.T.E.",
"E | | | c y.A.y.E , c c $ >.A.2.% E E , # | m.2., E / | f | A.>., E / E , y.s.| , # E c , | A.y.1 c E , , | A.y., E / ^ E y.T.T.",
"| y.A.c.E y.y.A.E | A.4.1 4.y.y.E | ;.( , E 4.y.c | y.y.c | y.4., E y.| E | w.| f E y.) , ;.4.y.c / c.| E | 4.y.E | A.2.E y.m.U.",
"E y.T.A.m E # f f ;.A.| , $ O # % | m.| f # O # # 4.A.y.f c + 9 , E 2.y.# , O f , E A.| # , O 9 c >.c.y.# , O f , 2.P.A.E 7 # E ",
"| A.P.A.) f # # E | A.| 9 # + # f E y.y.m # # O , | 2.9.E # # # f E ;.| m # # # , E ) ) E # + # f 4.y.E f # + # f | A.m.E f 9 f ",
"E A.T.y.f ) E E f y.A.9.9 , f c # | y.y.# f , f # E y.y., E c , # E m.) # , e f # , m.2.# , f m # 4.y./ , E f E f 4.A.y.E / 4.4.",
"E m.y.m.E | A.y.E 9.9.4., c y.E , E / | , , | | $ E | | f | y.| E y.| / 2 | ;.| f / >.2.f / c.| f >.y.| 1 / y.y.E | y.y.| y.A.A.",
"E / # f E | A.m., c + # c | y.| # , X # , E A.2., f + f , y.A.y., f O , , | 2.2., $ O $ # 4.c.>., f + # f | y.| , E + f E y.T.P.",
"4.f 9 f E 2.A.A.E $ # # E | 2.2.E # # # 2 7 2.| 1 $ # # f | c.| c # O # f | 2.| 1 # # # E 7 y.2.E $ # # 1 >.A.| , , # # | y.T.T.",
"E | | | E y.P.2.1 c / E $ | 2.| % , , , $ 7 A.m.# $ 1 E , | A.y., E 7 , # | 2.;.# , c , , E y.y., 1 c c , >.A.y., E E E E c.T.T.",
"| y.P.2.2 >.y.y.E | y.| 1 y.| 7 , 7 ;.;., ) | 2.E 1 | y.c 9.>.| c / y.| , | | E , E 2.| E | | y.1 / 9./ f 9.y.9.7 | A.2.E y.y.P.",
"E m.P.A.E , + f f w.m.>., f O # # ;.2.| # , O # , | y.2., f O $ , / A.| # # O , # 7 2.y.# , O # $ | y./ , E O $ , | N.A.7 E # E ",
"E y.L.m.E $ # 9 f | y.| f # # + , 7 ;.| # # # # E | y.| , 9 + + f 2.2.| f # O # % ) 2.y.E # # # c / y.y.c $ # # c | A.m.| c 9 f ",
"E y.P.y.E E E E f w.y.E # E f , # , | | # # , E # E y.4.# f f E , | A.| , # , , # | A.| # e f f $ / y.9.# , c E , | m.y.E / 4.4.",
"/ y.A.A.E | y.| f 4.) | , E | E # _ E ) # E 2.| f E ) | f / 4.4.f ) E 4., m ) E # ) | E % E y.) 9 E E f $ E y.| E | y.y.E | L.A.",
"E E # E E | A.y., f O f , E | | # # X # # / y.| # m O # # / 9.| f # O # f f ) 7 # # X # # E m.| # 9 X # # E y.>., f + f E 2.T.T.",
"4.c # 9 / y.A.y.E # # # 1 E >.>.f # O @ $ , >.7 f # 9 # c E >./ , # # # 2 ( ;.7 , # + + m | y.| m # # # , E s.2.E # # # | y.E.E.",
"E / 4.^ c 2.K.y.9 f c 9 # E 2.D % , 2 # # 7 2.| # , E f $ / c.>.# f f f # E | 7 # , , , , E y.| # f E f # | A.y.% , E E m y.T.T.",
"/ y.A.y./ y.y.y.E / y.>., E >.>., E 7 7 , | { 7 E E y./ , | >.>., E N.| , 7 | | , 7 | | , | | / f E | ;., / | 9.7 | y.2.E y.m.L.",
"L c.E.U.E E + f , | c.>.$ $ + # # , | | # $ X # , | 2.2.$ , + $ $ D 2.| , # X # # E | | # f + # % ) y.| $ , O f , ;.A.s.E E # E ",
"^ k.U.y.E , # # c | y.>., # # # , 7 | 7 , # # # # | A.| c # + # , 7 2.2., # # # , 7 2.D c $ # # E | A.| 1 # # # E | y.A.| c # f ",
"L k.E.m., E E 1 $ | c.>.# $ $ 1 $ , ;.7 # # & # % | 2.| , , c c # c 2.;.# & # & $ 7 >./ # , 1 , # | A.>.# 1 f 2 , | m.2.E 4.| 4.",
"| y.m.y.E 4.A.| m 4.4.E # , y.) % ( ) ) % 7 ) E 9 4.4.4.$ E y./ $ | L 4.% , E 2 % E 7 ) % E 4.E % E | | # E ;.y.E | y.2.E | L.A.",
"E E # f E >.A.y.% E O 9 # E ) E # #   # # 2 ) | # 9 X # # E y./ # $ X 9 % E ) 2 # #   # # ) w.w.9 # O # # 7 y.| f , O f E 2.T.T.",
"4.f # f 2 | c.4.f # # O # ) | 4.% @ O X % f / 7 % 9 + # f m 9.| # # O # , 7 ) E % # O O f m w.m 9 9 @ O f E 9.4., # # # | y.T.T.",
"E | | E f y.A.y.9 f f f # m | | # , # # # E ) / # # f f # ) 9./ % # f # # % ( ) # # E % # m 4.E # 9 f c # E y.9.% f E f m y.T.T.",
") y.U.y.E >.2.y.f L y.) # 1 | 7 % % 7 E # 3 2.7 f E | E $ / | >.c 7 7 D # E ( 2 & 7 | | $ / E 7 e m y.| , E / 9.7 / 2.>.E y.A.L.",
"E y.A.y.c c + $ , | y.4., $ O # # , | 7 # & X # # ) ;.| $ $ O $ $ D 2.2.# # . # # | ;.7 # $ O # # m | 2.$ $ O $ , | y.2.f E # E ",
"| A.P.A./ 9 # # E | y.y.1 # O # , 2 7 7 # # + + , | 2.| , # # # , E 2.7 & # . O # | 2.D E # # # # ) >.| 7 # + # f | s.2./ c # c ",
"E y.P.m.c / / 1 $ / y.2.# , , , # , 7 7 # , , , # E m.| # $ $ E $ 7 s.7 % & # % # 7 >.| # , E c # E 2.| # , 1 1 , | A.2.c / / 9.",
"E m.y.y./ | A.| , E | y.f E 2.E % 7 & 7 # 7 | ( % | | y., c y.| # / 7 | , , | 2 # 3 & 7 $ E | | , / E / $ 7 2.| f | y.y.E 2.U.A.",
"E / # f E 4.A.y.9 9 O # # E | ) # # X O # & 7 | # % O # # E | | # $ O # # 7 | | # # X # # ) 2.| $ $ O # # E y.;., E O , 2 y.T.T.",
"| c # 9 E y.A.2.m # O # # 2 ) ) , # O @ # % ( 7 # # # # , / | ) f # O + % 7 ;.2 % # # + # 7 | E f + O # , E y.| $ # # # E y.A.T.",
"E E | E , | m.y.e f f # # , | E # # # # @ , | E # # # # # c 4.| # $ , # @ % { % @ # # # # , E c # # # # # f w.| # , f E , y.T.T.",
"| y.A.2.m 4.w.4.f E | ) # E 7 2 # % ( % @ 2 2 E # f E 2 f f , c # f | 2 # % 2 , # # f % # m f E 9 f E f # f E E f ) y.| c 2.c.A.",
"E A.P.A.f , O # # E | ) # # X # O , 7 & O #   @ # 7 E E # # o # # f | 7 @ #   # # % 7 7 # # o # # c | E # # O # # | y.2.c E # / ",
"E y.P.2.E # # # f E | 7 # # O O # ; 7 7 # # X + # , | | , # + + # , | E # # X X # 7 ( | # # + # # f y.| , # + # m | y.2.4.c 9 f ",
"E y.A.m.f E c E , / 2.E # # # # # 7 3 & # # , # # E ;.4.# # E c # E | | # , # # # ( | 7 # % f f # 7 y.| # $ c , % ;.A.2.f / | 4.",
"E m.y.2.E | y.>., | | | $ 1 | / % 3 ; & & ; { 7 % 7 7 2., , 2.| $ / D 7 # 7 7 & # / / 7 , , | | , / / E , , >.| 1 | | y.E | K.A.",
"E E # E f 9.A.2., $ + $ $ E >.D # # X # # 7 { 7 & # X # # E >./ $ $ X # # 7 7 7 # # . # # | 2.| # # X # # , >.>., , + $ E 2.P.T.",
"4.c # $ E | y.y.c # # # , 1 >.7 % # O X # ; 7 3 $ # # # , f 4._ $ # O # , , 7 , # # X X , 7 ;.E $ # # + , , w.4., # # # / y.Y.U.",
"E | / E f 4.U.9.# , $ $ # 1 D / # # # # @ ; 7 ; # $ 1 # # f w.4.# # , # # & 7 2 # # , # # c | | # # 1 $ # E y.| # , c 7 f y.T.U.",
") y.A.2.E ;.4.4., f w.E # # E E # # 7 % # & & 3 # 1 ) E # E L _ # , | 1 @ 2 2 % # & ; ; # f f f $ , E , # m E m , ) y.| E y.c.A.",
"E y.A.y., f O # # f w.E # +   # @ & 3 % # #   + # , 2 E # # o # O 1 E , @ #   O # # , 7 # + o # # f ) E # # X # # | y.y., E # / ",
"E y.A.c.E # # # f m 4.f # @ X X @ % ; % # .   + # # E E # # X O # , E , # @ X X # 2 | , # # O + # f 4.E % O # # # | y.2.E f $ f ",
"E y.A.A., , f f # E 4.m # # # # # ; 3 & # # % % # , E | # # f f # , ) E @ # % # # , ) 2 # # # # # f 4.E # e f e # E y.9.f / / 4.",
"^ y.y.y.E | y.>.f ) / | f , D / @ 3 3 & # 3 7 3 # E 1 1 f , | E # E | D # # 3 & # & 3 7 & & >.1 # 1 1 E # 7 | ( , ) | 2.E | L.A.",
"E / # f , 2.y.y.f % + # # c >.7 # # X # @ & { { $ $ X # # 1 2.| # # X # # & 3 & # #   # # 3 >.7 # # X # # | 2.| # , O , , 2.T.T.",
"4.c # , E | y.| f # # + $ D | / % X X . # 3 7 7 # # + + # 7 | 7 , # + + # 3 3 3 # # O # & 3 2.7 $ # O # # | 2.| 7 # # # E y.A.T.",
"E / | E m | m.w.# , , $ # D 7 1 # # # # @ ; 7 7 # # , $ # E | E # , , # # 3 7 7 # # # # # 3 { D # 1 $ , # 7 2.) # , , E , y.T.T.",
"/ 9.U.y.E | ;.w., E | E # D / 7 % & 3 3 # , , | & 1 >.7 # E E E # , 7 & # & & 3 # & ( 7 # , f f $ 1 D 1 # | | | % 7 A.2.7 y.m.A.",
"E y.A.y.m f + # # | | ) # # . + # % ; ( O #   O # & 7 1 # 9 . # # E 7 ; # + X + O # 7 | # # o # $ 1 / c % # O # # E 2.y.f E # E ",
"| A.A.m.E # + # , E | E # + O . @ # 2 & @ X O # # $ E , f # O + # 7 ( 2 # X X X # % E , # + X O # f >.1 # # + O , E ;.;.E f $ f ",
"f y.P.y.# f f e # f m f # # + # X # ( % X # # # O $ c , @ # 9 # O , ( % X # X # @ # , , # O # 9 + # / , O # # # # ) y.| , E / 4."
};
