/* XPM */
static char *_e1a8eebb4204b4fefc6359ef14de10dzGsRLlpitzAvPM5E[] = {
/* columns rows colors chars-per-pixel */
"60 60 27 1 ",
"  c None",
". c black",
"X c #000400",
"o c #000B01",
"O c #001202",
"+ c #001502",
"@ c #001702",
"# c #001902",
"$ c #002303",
"% c #002404",
"& c #003205",
"* c #003706",
"= c #003806",
"- c #004407",
"; c #004B08",
": c #005509",
"> c #006C0B",
", c #006F0B",
"< c #00860E",
"1 c #00870E",
"2 c #00A711",
"3 c #00AA11",
"4 c #00B412",
"5 c #00B413",
"6 c #00CA15",
"7 c #00D816",
"8 c #00FF1A",
/* pixels */
"                                                            ",
"                                                            ",
"                                                            ",
"                                                            ",
"                                                            ",
"                                                            ",
"                                                            ",
"                                                            ",
"                                                            ",
"                                                            ",
"                                                            ",
"                                                            ",
"                                                            ",
"                                                            ",
"                                                            ",
"                                                            ",
"                                                            ",
"                            ....                            ",
"                            O44O                            ",
"                            +77+                            ",
"                            +77+                            ",
"                            +77+                            ",
"                            +77+                            ",
"                            +77+                            ",
"                            O54O                            ",
"                            ....                            ",
"                                                            ",
"                    #-::::*o    o=::::-#                    ",
"                    ;688883%    %388886;                    ",
"                    &13333,+    +,33331&                    ",
"                     ......      ......                     ",
"                             ..                             ",
"                            o,>o                            ",
"                            +77O                            ",
"                            +77+                            ",
"                            +77+                            ",
"                            +77+                            ",
"                            +77+                            ",
"                            +77+                            ",
"                            X%%X                            ",
"                                                            ",
"                                                            ",
"                                                            ",
"                                                            ",
"                                                            ",
"                                                            ",
"                                                            ",
"                                                            ",
"                                                            ",
"                                                            ",
"                                                            ",
"                                                            ",
"                                                            ",
"                                                            ",
"                                                            ",
"                                                            ",
"                                                            ",
"                                                            ",
"                                                            ",
"                                                            "
};
